<mxfile host="Electron" modified="2023-06-21T07:37:33.051Z" agent="Mozilla/5.0 (Windows NT 10.0; Win64; x64) AppleWebKit/537.36 (KHTML, like Gecko) draw.io/21.2.1 Chrome/112.0.5615.87 Electron/24.1.2 Safari/537.36" etag="VLsFGUqkHIf7zh-xcd0a" version="21.2.1" type="device">
  <diagram name="페이지-1" id="kO3XujZgf7U63V6LzG7b">
    <mxGraphModel dx="1687" dy="1134" grid="1" gridSize="10" guides="1" tooltips="1" connect="1" arrows="1" fold="1" page="1" pageScale="1" pageWidth="2339" pageHeight="3300" math="0" shadow="0">
      <root>
        <mxCell id="0" />
        <mxCell id="1" parent="0" />
        <mxCell id="oA2qePPQeVS2DAIEmv8c-1" value="func1(int * arr,&lt;br&gt;&amp;nbsp;int arrlen)" style="shape=process;whiteSpace=wrap;html=1;backgroundOutline=1;" vertex="1" parent="1">
          <mxGeometry x="230" y="20" width="120" height="60" as="geometry" />
        </mxCell>
        <mxCell id="oA2qePPQeVS2DAIEmv8c-2" value="int i:0,1,arrlen-1" style="shape=loopLimit;whiteSpace=wrap;html=1;" vertex="1" parent="1">
          <mxGeometry x="230" y="110" width="120" height="40" as="geometry" />
        </mxCell>
        <mxCell id="oA2qePPQeVS2DAIEmv8c-3" value="" style="shape=loopLimit;whiteSpace=wrap;html=1;rotation=-180;" vertex="1" parent="1">
          <mxGeometry x="230" y="1193" width="120" height="40" as="geometry" />
        </mxCell>
        <mxCell id="oA2qePPQeVS2DAIEmv8c-4" value="int j: i+1,1,arrlen-1" style="shape=loopLimit;whiteSpace=wrap;html=1;" vertex="1" parent="1">
          <mxGeometry x="230" y="230" width="120" height="40" as="geometry" />
        </mxCell>
        <mxCell id="oA2qePPQeVS2DAIEmv8c-5" value="" style="shape=loopLimit;whiteSpace=wrap;html=1;rotation=-180;" vertex="1" parent="1">
          <mxGeometry x="230" y="460" width="120" height="40" as="geometry" />
        </mxCell>
        <mxCell id="oA2qePPQeVS2DAIEmv8c-6" value="arr[j]&amp;lt;arr[min]" style="rhombus;whiteSpace=wrap;html=1;" vertex="1" parent="1">
          <mxGeometry x="240" y="290" width="100" height="60" as="geometry" />
        </mxCell>
        <mxCell id="oA2qePPQeVS2DAIEmv8c-7" value="int min=i" style="rounded=0;whiteSpace=wrap;html=1;" vertex="1" parent="1">
          <mxGeometry x="235" y="170" width="110" height="40" as="geometry" />
        </mxCell>
        <mxCell id="oA2qePPQeVS2DAIEmv8c-8" value="min=j" style="rounded=0;whiteSpace=wrap;html=1;" vertex="1" parent="1">
          <mxGeometry x="240" y="380" width="100" height="40" as="geometry" />
        </mxCell>
        <mxCell id="oA2qePPQeVS2DAIEmv8c-9" value="" style="endArrow=classic;html=1;rounded=0;exitX=0.5;exitY=1;exitDx=0;exitDy=0;entryX=0.5;entryY=0;entryDx=0;entryDy=0;" edge="1" parent="1" source="oA2qePPQeVS2DAIEmv8c-1" target="oA2qePPQeVS2DAIEmv8c-2">
          <mxGeometry width="50" height="50" relative="1" as="geometry">
            <mxPoint x="700" y="410" as="sourcePoint" />
            <mxPoint x="750" y="360" as="targetPoint" />
          </mxGeometry>
        </mxCell>
        <mxCell id="oA2qePPQeVS2DAIEmv8c-10" value="" style="endArrow=classic;html=1;rounded=0;exitX=0.5;exitY=1;exitDx=0;exitDy=0;entryX=0.5;entryY=0;entryDx=0;entryDy=0;" edge="1" parent="1" source="oA2qePPQeVS2DAIEmv8c-2" target="oA2qePPQeVS2DAIEmv8c-7">
          <mxGeometry width="50" height="50" relative="1" as="geometry">
            <mxPoint x="300" y="90" as="sourcePoint" />
            <mxPoint x="300" y="120" as="targetPoint" />
          </mxGeometry>
        </mxCell>
        <mxCell id="oA2qePPQeVS2DAIEmv8c-11" value="" style="endArrow=classic;html=1;rounded=0;exitX=0.5;exitY=1;exitDx=0;exitDy=0;entryX=0.5;entryY=0;entryDx=0;entryDy=0;" edge="1" parent="1" source="oA2qePPQeVS2DAIEmv8c-7" target="oA2qePPQeVS2DAIEmv8c-4">
          <mxGeometry width="50" height="50" relative="1" as="geometry">
            <mxPoint x="310" y="100" as="sourcePoint" />
            <mxPoint x="310" y="130" as="targetPoint" />
          </mxGeometry>
        </mxCell>
        <mxCell id="oA2qePPQeVS2DAIEmv8c-12" value="" style="endArrow=classic;html=1;rounded=0;exitX=0.5;exitY=1;exitDx=0;exitDy=0;entryX=0.5;entryY=0;entryDx=0;entryDy=0;" edge="1" parent="1" source="oA2qePPQeVS2DAIEmv8c-4" target="oA2qePPQeVS2DAIEmv8c-6">
          <mxGeometry width="50" height="50" relative="1" as="geometry">
            <mxPoint x="700" y="410" as="sourcePoint" />
            <mxPoint x="750" y="360" as="targetPoint" />
          </mxGeometry>
        </mxCell>
        <mxCell id="oA2qePPQeVS2DAIEmv8c-13" value="T" style="endArrow=classic;html=1;rounded=0;exitX=0.5;exitY=1;exitDx=0;exitDy=0;entryX=0.5;entryY=0;entryDx=0;entryDy=0;" edge="1" parent="1" source="oA2qePPQeVS2DAIEmv8c-6" target="oA2qePPQeVS2DAIEmv8c-8">
          <mxGeometry width="50" height="50" relative="1" as="geometry">
            <mxPoint x="700" y="410" as="sourcePoint" />
            <mxPoint x="750" y="360" as="targetPoint" />
          </mxGeometry>
        </mxCell>
        <mxCell id="oA2qePPQeVS2DAIEmv8c-14" value="" style="endArrow=classic;html=1;rounded=0;exitX=0.5;exitY=1;exitDx=0;exitDy=0;entryX=0.5;entryY=1;entryDx=0;entryDy=0;" edge="1" parent="1" source="oA2qePPQeVS2DAIEmv8c-8" target="oA2qePPQeVS2DAIEmv8c-5">
          <mxGeometry width="50" height="50" relative="1" as="geometry">
            <mxPoint x="700" y="410" as="sourcePoint" />
            <mxPoint x="750" y="360" as="targetPoint" />
          </mxGeometry>
        </mxCell>
        <mxCell id="oA2qePPQeVS2DAIEmv8c-15" value="F" style="endArrow=classic;html=1;rounded=0;exitX=1;exitY=0.5;exitDx=0;exitDy=0;" edge="1" parent="1" source="oA2qePPQeVS2DAIEmv8c-6">
          <mxGeometry width="50" height="50" relative="1" as="geometry">
            <mxPoint x="700" y="410" as="sourcePoint" />
            <mxPoint x="290" y="440" as="targetPoint" />
            <Array as="points">
              <mxPoint x="360" y="320" />
              <mxPoint x="360" y="440" />
            </Array>
          </mxGeometry>
        </mxCell>
        <mxCell id="oA2qePPQeVS2DAIEmv8c-16" value="swap(int &amp;amp;a,&lt;br&gt;&amp;nbsp;int &amp;amp;b)" style="shape=process;whiteSpace=wrap;html=1;backgroundOutline=1;" vertex="1" parent="1">
          <mxGeometry x="230" y="1113" width="120" height="60" as="geometry" />
        </mxCell>
        <mxCell id="oA2qePPQeVS2DAIEmv8c-19" value="" style="endArrow=classic;html=1;rounded=0;exitX=0.5;exitY=1;exitDx=0;exitDy=0;entryX=0.5;entryY=1;entryDx=0;entryDy=0;" edge="1" parent="1" source="oA2qePPQeVS2DAIEmv8c-16" target="oA2qePPQeVS2DAIEmv8c-3">
          <mxGeometry width="50" height="50" relative="1" as="geometry">
            <mxPoint x="700" y="993" as="sourcePoint" />
            <mxPoint x="750" y="943" as="targetPoint" />
          </mxGeometry>
        </mxCell>
        <mxCell id="oA2qePPQeVS2DAIEmv8c-20" value="int k: 0,1,arrlen-1" style="shape=loopLimit;whiteSpace=wrap;html=1;" vertex="1" parent="1">
          <mxGeometry x="230" y="540" width="120" height="40" as="geometry" />
        </mxCell>
        <mxCell id="oA2qePPQeVS2DAIEmv8c-21" value="" style="shape=loopLimit;whiteSpace=wrap;html=1;rotation=-180;" vertex="1" parent="1">
          <mxGeometry x="230" y="773" width="120" height="40" as="geometry" />
        </mxCell>
        <mxCell id="oA2qePPQeVS2DAIEmv8c-22" value="k==i" style="rhombus;whiteSpace=wrap;html=1;" vertex="1" parent="1">
          <mxGeometry x="240" y="600" width="100" height="60" as="geometry" />
        </mxCell>
        <mxCell id="oA2qePPQeVS2DAIEmv8c-24" value="" style="endArrow=classic;html=1;rounded=0;exitX=0.5;exitY=1;exitDx=0;exitDy=0;entryX=0.5;entryY=0;entryDx=0;entryDy=0;" edge="1" parent="1" source="oA2qePPQeVS2DAIEmv8c-20" target="oA2qePPQeVS2DAIEmv8c-22">
          <mxGeometry width="50" height="50" relative="1" as="geometry">
            <mxPoint x="700" y="720" as="sourcePoint" />
            <mxPoint x="750" y="670" as="targetPoint" />
          </mxGeometry>
        </mxCell>
        <mxCell id="oA2qePPQeVS2DAIEmv8c-25" value="T" style="endArrow=classic;html=1;rounded=0;exitX=0.5;exitY=1;exitDx=0;exitDy=0;entryX=0.5;entryY=0;entryDx=0;entryDy=0;" edge="1" parent="1" source="oA2qePPQeVS2DAIEmv8c-22" target="oA2qePPQeVS2DAIEmv8c-28">
          <mxGeometry width="50" height="50" relative="1" as="geometry">
            <mxPoint x="700" y="720" as="sourcePoint" />
            <mxPoint x="290" y="690" as="targetPoint" />
          </mxGeometry>
        </mxCell>
        <mxCell id="oA2qePPQeVS2DAIEmv8c-26" value="" style="endArrow=classic;html=1;rounded=0;entryX=0.5;entryY=1;entryDx=0;entryDy=0;exitX=0.5;exitY=0.9;exitDx=0;exitDy=0;exitPerimeter=0;" edge="1" parent="1" source="oA2qePPQeVS2DAIEmv8c-28" target="oA2qePPQeVS2DAIEmv8c-21">
          <mxGeometry width="50" height="50" relative="1" as="geometry">
            <mxPoint x="290" y="790" as="sourcePoint" />
            <mxPoint x="750" y="670" as="targetPoint" />
          </mxGeometry>
        </mxCell>
        <mxCell id="oA2qePPQeVS2DAIEmv8c-28" value="&quot;* &quot; 출력" style="shape=document;whiteSpace=wrap;html=1;boundedLbl=1;" vertex="1" parent="1">
          <mxGeometry x="240" y="690" width="100" height="50" as="geometry" />
        </mxCell>
        <mxCell id="oA2qePPQeVS2DAIEmv8c-29" value="F" style="endArrow=classic;html=1;rounded=0;exitX=1;exitY=0.5;exitDx=0;exitDy=0;entryX=0;entryY=0.5;entryDx=0;entryDy=0;" edge="1" parent="1" source="oA2qePPQeVS2DAIEmv8c-22" target="oA2qePPQeVS2DAIEmv8c-30">
          <mxGeometry width="50" height="50" relative="1" as="geometry">
            <mxPoint x="400" y="680" as="sourcePoint" />
            <mxPoint x="500" y="640" as="targetPoint" />
          </mxGeometry>
        </mxCell>
        <mxCell id="oA2qePPQeVS2DAIEmv8c-30" value="k==min" style="rhombus;whiteSpace=wrap;html=1;" vertex="1" parent="1">
          <mxGeometry x="380" y="600" width="100" height="60" as="geometry" />
        </mxCell>
        <mxCell id="oA2qePPQeVS2DAIEmv8c-31" value="T" style="endArrow=classic;html=1;rounded=0;exitX=0.5;exitY=1;exitDx=0;exitDy=0;entryX=0.5;entryY=0;entryDx=0;entryDy=0;" edge="1" parent="1" source="oA2qePPQeVS2DAIEmv8c-30" target="oA2qePPQeVS2DAIEmv8c-32">
          <mxGeometry width="50" height="50" relative="1" as="geometry">
            <mxPoint x="300" y="670" as="sourcePoint" />
            <mxPoint x="430" y="690" as="targetPoint" />
          </mxGeometry>
        </mxCell>
        <mxCell id="oA2qePPQeVS2DAIEmv8c-32" value="&quot;+ &quot; 출력" style="shape=document;whiteSpace=wrap;html=1;boundedLbl=1;" vertex="1" parent="1">
          <mxGeometry x="380" y="690" width="100" height="50" as="geometry" />
        </mxCell>
        <mxCell id="oA2qePPQeVS2DAIEmv8c-33" value="F" style="endArrow=classic;html=1;rounded=0;exitX=1;exitY=0.5;exitDx=0;exitDy=0;entryX=0;entryY=0.5;entryDx=0;entryDy=0;" edge="1" parent="1" source="oA2qePPQeVS2DAIEmv8c-30" target="oA2qePPQeVS2DAIEmv8c-34">
          <mxGeometry width="50" height="50" relative="1" as="geometry">
            <mxPoint x="350" y="640" as="sourcePoint" />
            <mxPoint x="530" y="630" as="targetPoint" />
          </mxGeometry>
        </mxCell>
        <mxCell id="oA2qePPQeVS2DAIEmv8c-34" value="&quot;&amp;nbsp; &quot; 출력" style="shape=document;whiteSpace=wrap;html=1;boundedLbl=1;" vertex="1" parent="1">
          <mxGeometry x="530" y="605" width="100" height="50" as="geometry" />
        </mxCell>
        <mxCell id="oA2qePPQeVS2DAIEmv8c-36" value="" style="endArrow=none;html=1;rounded=0;entryX=0.56;entryY=0.8;entryDx=0;entryDy=0;entryPerimeter=0;" edge="1" parent="1" target="oA2qePPQeVS2DAIEmv8c-34">
          <mxGeometry width="50" height="50" relative="1" as="geometry">
            <mxPoint x="586" y="750" as="sourcePoint" />
            <mxPoint x="320" y="580" as="targetPoint" />
          </mxGeometry>
        </mxCell>
        <mxCell id="oA2qePPQeVS2DAIEmv8c-37" value="" style="endArrow=none;html=1;rounded=0;entryX=0.51;entryY=0.86;entryDx=0;entryDy=0;entryPerimeter=0;" edge="1" parent="1" target="oA2qePPQeVS2DAIEmv8c-32">
          <mxGeometry width="50" height="50" relative="1" as="geometry">
            <mxPoint x="431" y="750" as="sourcePoint" />
            <mxPoint x="596" y="655" as="targetPoint" />
          </mxGeometry>
        </mxCell>
        <mxCell id="oA2qePPQeVS2DAIEmv8c-38" value="" style="endArrow=classic;html=1;rounded=0;" edge="1" parent="1">
          <mxGeometry width="50" height="50" relative="1" as="geometry">
            <mxPoint x="590" y="750" as="sourcePoint" />
            <mxPoint x="290" y="750" as="targetPoint" />
          </mxGeometry>
        </mxCell>
        <mxCell id="oA2qePPQeVS2DAIEmv8c-39" value="cout&amp;lt;&amp;lt;endl" style="shape=document;whiteSpace=wrap;html=1;boundedLbl=1;" vertex="1" parent="1">
          <mxGeometry x="240" y="843" width="100" height="50" as="geometry" />
        </mxCell>
        <mxCell id="oA2qePPQeVS2DAIEmv8c-40" value="" style="endArrow=classic;html=1;rounded=0;exitX=0.5;exitY=0;exitDx=0;exitDy=0;" edge="1" parent="1" source="oA2qePPQeVS2DAIEmv8c-21" target="oA2qePPQeVS2DAIEmv8c-39">
          <mxGeometry width="50" height="50" relative="1" as="geometry">
            <mxPoint x="270" y="703" as="sourcePoint" />
            <mxPoint x="320" y="653" as="targetPoint" />
          </mxGeometry>
        </mxCell>
        <mxCell id="oA2qePPQeVS2DAIEmv8c-41" value="int t: 0,1,arrlen-1" style="shape=loopLimit;whiteSpace=wrap;html=1;" vertex="1" parent="1">
          <mxGeometry x="230" y="913" width="120" height="40" as="geometry" />
        </mxCell>
        <mxCell id="oA2qePPQeVS2DAIEmv8c-42" value="" style="shape=loopLimit;whiteSpace=wrap;html=1;rotation=-180;" vertex="1" parent="1">
          <mxGeometry x="230" y="1053" width="120" height="40" as="geometry" />
        </mxCell>
        <mxCell id="oA2qePPQeVS2DAIEmv8c-44" value="" style="endArrow=classic;html=1;rounded=0;exitX=0.5;exitY=1;exitDx=0;exitDy=0;entryX=0.5;entryY=0;entryDx=0;entryDy=0;" edge="1" parent="1" source="oA2qePPQeVS2DAIEmv8c-41" target="oA2qePPQeVS2DAIEmv8c-47">
          <mxGeometry width="50" height="50" relative="1" as="geometry">
            <mxPoint x="700" y="1093" as="sourcePoint" />
            <mxPoint x="290" y="973" as="targetPoint" />
          </mxGeometry>
        </mxCell>
        <mxCell id="oA2qePPQeVS2DAIEmv8c-46" value="" style="endArrow=classic;html=1;rounded=0;entryX=0.5;entryY=1;entryDx=0;entryDy=0;exitX=0.5;exitY=0.9;exitDx=0;exitDy=0;exitPerimeter=0;" edge="1" parent="1" source="oA2qePPQeVS2DAIEmv8c-47" target="oA2qePPQeVS2DAIEmv8c-42">
          <mxGeometry width="50" height="50" relative="1" as="geometry">
            <mxPoint x="290" y="1083" as="sourcePoint" />
            <mxPoint x="750" y="963" as="targetPoint" />
          </mxGeometry>
        </mxCell>
        <mxCell id="oA2qePPQeVS2DAIEmv8c-47" value="arr[t] 출력" style="shape=document;whiteSpace=wrap;html=1;boundedLbl=1;" vertex="1" parent="1">
          <mxGeometry x="240" y="983" width="100" height="50" as="geometry" />
        </mxCell>
        <mxCell id="oA2qePPQeVS2DAIEmv8c-48" value="" style="endArrow=classic;html=1;rounded=0;exitX=0.51;exitY=0.9;exitDx=0;exitDy=0;exitPerimeter=0;entryX=0.5;entryY=0;entryDx=0;entryDy=0;" edge="1" parent="1" source="oA2qePPQeVS2DAIEmv8c-39" target="oA2qePPQeVS2DAIEmv8c-41">
          <mxGeometry width="50" height="50" relative="1" as="geometry">
            <mxPoint x="300" y="823" as="sourcePoint" />
            <mxPoint x="300" y="853" as="targetPoint" />
          </mxGeometry>
        </mxCell>
        <mxCell id="oA2qePPQeVS2DAIEmv8c-49" value="" style="endArrow=classic;html=1;rounded=0;exitX=0.5;exitY=0;exitDx=0;exitDy=0;entryX=0.5;entryY=0;entryDx=0;entryDy=0;" edge="1" parent="1" source="oA2qePPQeVS2DAIEmv8c-42" target="oA2qePPQeVS2DAIEmv8c-16">
          <mxGeometry width="50" height="50" relative="1" as="geometry">
            <mxPoint x="300" y="923" as="sourcePoint" />
            <mxPoint x="300" y="953" as="targetPoint" />
          </mxGeometry>
        </mxCell>
        <mxCell id="oA2qePPQeVS2DAIEmv8c-50" value="" style="endArrow=classic;html=1;rounded=0;exitX=0.5;exitY=0;exitDx=0;exitDy=0;entryX=0.5;entryY=0;entryDx=0;entryDy=0;" edge="1" parent="1" source="oA2qePPQeVS2DAIEmv8c-5" target="oA2qePPQeVS2DAIEmv8c-20">
          <mxGeometry width="50" height="50" relative="1" as="geometry">
            <mxPoint x="540" y="660" as="sourcePoint" />
            <mxPoint x="590" y="610" as="targetPoint" />
          </mxGeometry>
        </mxCell>
        <mxCell id="oA2qePPQeVS2DAIEmv8c-51" value="swap(int &amp;amp;a,&lt;br&gt;&amp;nbsp;int &amp;amp;b)" style="shape=process;whiteSpace=wrap;html=1;backgroundOutline=1;" vertex="1" parent="1">
          <mxGeometry x="40" y="20" width="120" height="60" as="geometry" />
        </mxCell>
        <mxCell id="oA2qePPQeVS2DAIEmv8c-53" value="int temp=a&lt;br&gt;a=b&lt;br&gt;b=temp" style="rounded=0;whiteSpace=wrap;html=1;" vertex="1" parent="1">
          <mxGeometry x="40" y="110" width="120" height="60" as="geometry" />
        </mxCell>
        <mxCell id="oA2qePPQeVS2DAIEmv8c-54" value="" style="endArrow=classic;html=1;rounded=0;exitX=0.5;exitY=1;exitDx=0;exitDy=0;entryX=0.5;entryY=0;entryDx=0;entryDy=0;" edge="1" parent="1" source="oA2qePPQeVS2DAIEmv8c-51" target="oA2qePPQeVS2DAIEmv8c-53">
          <mxGeometry width="50" height="50" relative="1" as="geometry">
            <mxPoint x="120" y="240" as="sourcePoint" />
            <mxPoint x="170" y="190" as="targetPoint" />
          </mxGeometry>
        </mxCell>
        <mxCell id="oA2qePPQeVS2DAIEmv8c-55" value="func2(int * arr,&lt;br&gt;&amp;nbsp;int arrlen)" style="shape=process;whiteSpace=wrap;html=1;backgroundOutline=1;" vertex="1" parent="1">
          <mxGeometry x="746" y="20" width="120" height="60" as="geometry" />
        </mxCell>
        <mxCell id="oA2qePPQeVS2DAIEmv8c-56" value="int i:0,1,arrlen-1" style="shape=loopLimit;whiteSpace=wrap;html=1;" vertex="1" parent="1">
          <mxGeometry x="746" y="110" width="120" height="40" as="geometry" />
        </mxCell>
        <mxCell id="oA2qePPQeVS2DAIEmv8c-57" value="" style="shape=loopLimit;whiteSpace=wrap;html=1;rotation=-180;" vertex="1" parent="1">
          <mxGeometry x="747" y="993" width="120" height="40" as="geometry" />
        </mxCell>
        <mxCell id="oA2qePPQeVS2DAIEmv8c-58" value="int j: i+1,1,arrlen-1" style="shape=loopLimit;whiteSpace=wrap;html=1;" vertex="1" parent="1">
          <mxGeometry x="746" y="170" width="120" height="40" as="geometry" />
        </mxCell>
        <mxCell id="oA2qePPQeVS2DAIEmv8c-59" value="" style="shape=loopLimit;whiteSpace=wrap;html=1;rotation=-180;" vertex="1" parent="1">
          <mxGeometry x="747" y="1060" width="120" height="40" as="geometry" />
        </mxCell>
        <mxCell id="oA2qePPQeVS2DAIEmv8c-60" value="arr[j]&amp;lt;arr[min]" style="rhombus;whiteSpace=wrap;html=1;" vertex="1" parent="1">
          <mxGeometry x="756" y="230" width="100" height="60" as="geometry" />
        </mxCell>
        <mxCell id="oA2qePPQeVS2DAIEmv8c-63" value="" style="endArrow=classic;html=1;rounded=0;exitX=0.5;exitY=1;exitDx=0;exitDy=0;entryX=0.5;entryY=0;entryDx=0;entryDy=0;" edge="1" parent="1" source="oA2qePPQeVS2DAIEmv8c-55" target="oA2qePPQeVS2DAIEmv8c-56">
          <mxGeometry width="50" height="50" relative="1" as="geometry">
            <mxPoint x="1216" y="410" as="sourcePoint" />
            <mxPoint x="1266" y="360" as="targetPoint" />
          </mxGeometry>
        </mxCell>
        <mxCell id="oA2qePPQeVS2DAIEmv8c-64" value="" style="endArrow=classic;html=1;rounded=0;exitX=0.5;exitY=1;exitDx=0;exitDy=0;entryX=0.5;entryY=0;entryDx=0;entryDy=0;" edge="1" parent="1" source="oA2qePPQeVS2DAIEmv8c-56" target="oA2qePPQeVS2DAIEmv8c-58">
          <mxGeometry width="50" height="50" relative="1" as="geometry">
            <mxPoint x="816" y="90" as="sourcePoint" />
            <mxPoint x="806" y="170" as="targetPoint" />
          </mxGeometry>
        </mxCell>
        <mxCell id="oA2qePPQeVS2DAIEmv8c-66" value="" style="endArrow=classic;html=1;rounded=0;exitX=0.5;exitY=1;exitDx=0;exitDy=0;entryX=0.5;entryY=0;entryDx=0;entryDy=0;" edge="1" parent="1" source="oA2qePPQeVS2DAIEmv8c-58" target="oA2qePPQeVS2DAIEmv8c-60">
          <mxGeometry width="50" height="50" relative="1" as="geometry">
            <mxPoint x="1216" y="350" as="sourcePoint" />
            <mxPoint x="1266" y="300" as="targetPoint" />
          </mxGeometry>
        </mxCell>
        <mxCell id="oA2qePPQeVS2DAIEmv8c-67" value="T" style="endArrow=classic;html=1;rounded=0;exitX=0.5;exitY=1;exitDx=0;exitDy=0;entryX=0.5;entryY=0;entryDx=0;entryDy=0;" edge="1" parent="1" source="oA2qePPQeVS2DAIEmv8c-60" target="oA2qePPQeVS2DAIEmv8c-72">
          <mxGeometry width="50" height="50" relative="1" as="geometry">
            <mxPoint x="1216" y="350" as="sourcePoint" />
            <mxPoint x="806" y="320" as="targetPoint" />
          </mxGeometry>
        </mxCell>
        <mxCell id="oA2qePPQeVS2DAIEmv8c-68" value="" style="endArrow=classic;html=1;rounded=0;exitX=0.5;exitY=0;exitDx=0;exitDy=0;entryX=0.5;entryY=1;entryDx=0;entryDy=0;" edge="1" parent="1" source="oA2qePPQeVS2DAIEmv8c-57" target="oA2qePPQeVS2DAIEmv8c-59">
          <mxGeometry width="50" height="50" relative="1" as="geometry">
            <mxPoint x="807" y="1100" as="sourcePoint" />
            <mxPoint x="1267" y="1040" as="targetPoint" />
          </mxGeometry>
        </mxCell>
        <mxCell id="oA2qePPQeVS2DAIEmv8c-70" value="swap(int &amp;amp;a,&lt;br&gt;&amp;nbsp;int &amp;amp;b)" style="shape=process;whiteSpace=wrap;html=1;backgroundOutline=1;" vertex="1" parent="1">
          <mxGeometry x="747" y="893" width="120" height="60" as="geometry" />
        </mxCell>
        <mxCell id="oA2qePPQeVS2DAIEmv8c-71" value="" style="endArrow=classic;html=1;rounded=0;exitX=0.5;exitY=1;exitDx=0;exitDy=0;entryX=0.5;entryY=1;entryDx=0;entryDy=0;" edge="1" parent="1" source="oA2qePPQeVS2DAIEmv8c-70" target="oA2qePPQeVS2DAIEmv8c-57">
          <mxGeometry width="50" height="50" relative="1" as="geometry">
            <mxPoint x="1217" y="773" as="sourcePoint" />
            <mxPoint x="1267" y="723" as="targetPoint" />
          </mxGeometry>
        </mxCell>
        <mxCell id="oA2qePPQeVS2DAIEmv8c-72" value="int k: 0,1,arrlen-1" style="shape=loopLimit;whiteSpace=wrap;html=1;" vertex="1" parent="1">
          <mxGeometry x="747" y="320" width="120" height="40" as="geometry" />
        </mxCell>
        <mxCell id="oA2qePPQeVS2DAIEmv8c-73" value="" style="shape=loopLimit;whiteSpace=wrap;html=1;rotation=-180;" vertex="1" parent="1">
          <mxGeometry x="747" y="553" width="120" height="40" as="geometry" />
        </mxCell>
        <mxCell id="oA2qePPQeVS2DAIEmv8c-74" value="k==i" style="rhombus;whiteSpace=wrap;html=1;" vertex="1" parent="1">
          <mxGeometry x="757" y="380" width="100" height="60" as="geometry" />
        </mxCell>
        <mxCell id="oA2qePPQeVS2DAIEmv8c-75" value="" style="endArrow=classic;html=1;rounded=0;exitX=0.5;exitY=1;exitDx=0;exitDy=0;entryX=0.5;entryY=0;entryDx=0;entryDy=0;" edge="1" parent="1" source="oA2qePPQeVS2DAIEmv8c-72" target="oA2qePPQeVS2DAIEmv8c-74">
          <mxGeometry width="50" height="50" relative="1" as="geometry">
            <mxPoint x="1217" y="500" as="sourcePoint" />
            <mxPoint x="1267" y="450" as="targetPoint" />
          </mxGeometry>
        </mxCell>
        <mxCell id="oA2qePPQeVS2DAIEmv8c-76" value="T" style="endArrow=classic;html=1;rounded=0;exitX=0.5;exitY=1;exitDx=0;exitDy=0;entryX=0.5;entryY=0;entryDx=0;entryDy=0;" edge="1" parent="1" source="oA2qePPQeVS2DAIEmv8c-74" target="oA2qePPQeVS2DAIEmv8c-78">
          <mxGeometry width="50" height="50" relative="1" as="geometry">
            <mxPoint x="1217" y="500" as="sourcePoint" />
            <mxPoint x="807" y="470" as="targetPoint" />
          </mxGeometry>
        </mxCell>
        <mxCell id="oA2qePPQeVS2DAIEmv8c-77" value="" style="endArrow=classic;html=1;rounded=0;entryX=0.5;entryY=1;entryDx=0;entryDy=0;exitX=0.5;exitY=0.9;exitDx=0;exitDy=0;exitPerimeter=0;" edge="1" parent="1" source="oA2qePPQeVS2DAIEmv8c-78" target="oA2qePPQeVS2DAIEmv8c-73">
          <mxGeometry width="50" height="50" relative="1" as="geometry">
            <mxPoint x="807" y="570" as="sourcePoint" />
            <mxPoint x="1267" y="450" as="targetPoint" />
          </mxGeometry>
        </mxCell>
        <mxCell id="oA2qePPQeVS2DAIEmv8c-78" value="&quot;* &quot; 출력" style="shape=document;whiteSpace=wrap;html=1;boundedLbl=1;" vertex="1" parent="1">
          <mxGeometry x="757" y="470" width="100" height="50" as="geometry" />
        </mxCell>
        <mxCell id="oA2qePPQeVS2DAIEmv8c-79" value="F" style="endArrow=classic;html=1;rounded=0;exitX=1;exitY=0.5;exitDx=0;exitDy=0;entryX=0;entryY=0.5;entryDx=0;entryDy=0;" edge="1" parent="1" source="oA2qePPQeVS2DAIEmv8c-74" target="oA2qePPQeVS2DAIEmv8c-80">
          <mxGeometry width="50" height="50" relative="1" as="geometry">
            <mxPoint x="917" y="460" as="sourcePoint" />
            <mxPoint x="1017" y="420" as="targetPoint" />
          </mxGeometry>
        </mxCell>
        <mxCell id="oA2qePPQeVS2DAIEmv8c-80" value="k==j" style="rhombus;whiteSpace=wrap;html=1;" vertex="1" parent="1">
          <mxGeometry x="897" y="380" width="100" height="60" as="geometry" />
        </mxCell>
        <mxCell id="oA2qePPQeVS2DAIEmv8c-81" value="T" style="endArrow=classic;html=1;rounded=0;exitX=0.5;exitY=1;exitDx=0;exitDy=0;entryX=0.5;entryY=0;entryDx=0;entryDy=0;" edge="1" parent="1" source="oA2qePPQeVS2DAIEmv8c-80" target="oA2qePPQeVS2DAIEmv8c-82">
          <mxGeometry width="50" height="50" relative="1" as="geometry">
            <mxPoint x="817" y="450" as="sourcePoint" />
            <mxPoint x="947" y="470" as="targetPoint" />
          </mxGeometry>
        </mxCell>
        <mxCell id="oA2qePPQeVS2DAIEmv8c-82" value="&quot;+ &quot; 출력" style="shape=document;whiteSpace=wrap;html=1;boundedLbl=1;" vertex="1" parent="1">
          <mxGeometry x="897" y="470" width="100" height="50" as="geometry" />
        </mxCell>
        <mxCell id="oA2qePPQeVS2DAIEmv8c-83" value="F" style="endArrow=classic;html=1;rounded=0;exitX=1;exitY=0.5;exitDx=0;exitDy=0;entryX=0;entryY=0.5;entryDx=0;entryDy=0;" edge="1" parent="1" source="oA2qePPQeVS2DAIEmv8c-80" target="oA2qePPQeVS2DAIEmv8c-84">
          <mxGeometry width="50" height="50" relative="1" as="geometry">
            <mxPoint x="867" y="420" as="sourcePoint" />
            <mxPoint x="1047" y="410" as="targetPoint" />
          </mxGeometry>
        </mxCell>
        <mxCell id="oA2qePPQeVS2DAIEmv8c-84" value="&quot;&amp;nbsp; &quot; 출력" style="shape=document;whiteSpace=wrap;html=1;boundedLbl=1;" vertex="1" parent="1">
          <mxGeometry x="1047" y="385" width="100" height="50" as="geometry" />
        </mxCell>
        <mxCell id="oA2qePPQeVS2DAIEmv8c-85" value="" style="endArrow=none;html=1;rounded=0;entryX=0.56;entryY=0.8;entryDx=0;entryDy=0;entryPerimeter=0;" edge="1" parent="1" target="oA2qePPQeVS2DAIEmv8c-84">
          <mxGeometry width="50" height="50" relative="1" as="geometry">
            <mxPoint x="1103" y="530" as="sourcePoint" />
            <mxPoint x="837" y="360" as="targetPoint" />
          </mxGeometry>
        </mxCell>
        <mxCell id="oA2qePPQeVS2DAIEmv8c-86" value="" style="endArrow=none;html=1;rounded=0;entryX=0.51;entryY=0.86;entryDx=0;entryDy=0;entryPerimeter=0;" edge="1" parent="1" target="oA2qePPQeVS2DAIEmv8c-82">
          <mxGeometry width="50" height="50" relative="1" as="geometry">
            <mxPoint x="948" y="530" as="sourcePoint" />
            <mxPoint x="1113" y="435" as="targetPoint" />
          </mxGeometry>
        </mxCell>
        <mxCell id="oA2qePPQeVS2DAIEmv8c-87" value="" style="endArrow=classic;html=1;rounded=0;" edge="1" parent="1">
          <mxGeometry width="50" height="50" relative="1" as="geometry">
            <mxPoint x="1107" y="530" as="sourcePoint" />
            <mxPoint x="807" y="530" as="targetPoint" />
          </mxGeometry>
        </mxCell>
        <mxCell id="oA2qePPQeVS2DAIEmv8c-88" value="cout&amp;lt;&amp;lt;endl" style="shape=document;whiteSpace=wrap;html=1;boundedLbl=1;" vertex="1" parent="1">
          <mxGeometry x="757" y="623" width="100" height="50" as="geometry" />
        </mxCell>
        <mxCell id="oA2qePPQeVS2DAIEmv8c-89" value="" style="endArrow=classic;html=1;rounded=0;exitX=0.5;exitY=0;exitDx=0;exitDy=0;" edge="1" parent="1" source="oA2qePPQeVS2DAIEmv8c-73" target="oA2qePPQeVS2DAIEmv8c-88">
          <mxGeometry width="50" height="50" relative="1" as="geometry">
            <mxPoint x="787" y="483" as="sourcePoint" />
            <mxPoint x="837" y="433" as="targetPoint" />
          </mxGeometry>
        </mxCell>
        <mxCell id="oA2qePPQeVS2DAIEmv8c-90" value="int t: 0,1,arrlen-1" style="shape=loopLimit;whiteSpace=wrap;html=1;" vertex="1" parent="1">
          <mxGeometry x="747" y="693" width="120" height="40" as="geometry" />
        </mxCell>
        <mxCell id="oA2qePPQeVS2DAIEmv8c-91" value="" style="shape=loopLimit;whiteSpace=wrap;html=1;rotation=-180;" vertex="1" parent="1">
          <mxGeometry x="747" y="833" width="120" height="40" as="geometry" />
        </mxCell>
        <mxCell id="oA2qePPQeVS2DAIEmv8c-92" value="" style="endArrow=classic;html=1;rounded=0;exitX=0.5;exitY=1;exitDx=0;exitDy=0;entryX=0.5;entryY=0;entryDx=0;entryDy=0;" edge="1" parent="1" source="oA2qePPQeVS2DAIEmv8c-90" target="oA2qePPQeVS2DAIEmv8c-94">
          <mxGeometry width="50" height="50" relative="1" as="geometry">
            <mxPoint x="1217" y="873" as="sourcePoint" />
            <mxPoint x="807" y="753" as="targetPoint" />
          </mxGeometry>
        </mxCell>
        <mxCell id="oA2qePPQeVS2DAIEmv8c-93" value="" style="endArrow=classic;html=1;rounded=0;entryX=0.5;entryY=1;entryDx=0;entryDy=0;exitX=0.5;exitY=0.9;exitDx=0;exitDy=0;exitPerimeter=0;" edge="1" parent="1" source="oA2qePPQeVS2DAIEmv8c-94" target="oA2qePPQeVS2DAIEmv8c-91">
          <mxGeometry width="50" height="50" relative="1" as="geometry">
            <mxPoint x="807" y="863" as="sourcePoint" />
            <mxPoint x="1267" y="743" as="targetPoint" />
          </mxGeometry>
        </mxCell>
        <mxCell id="oA2qePPQeVS2DAIEmv8c-94" value="arr[t] 출력" style="shape=document;whiteSpace=wrap;html=1;boundedLbl=1;" vertex="1" parent="1">
          <mxGeometry x="757" y="763" width="100" height="50" as="geometry" />
        </mxCell>
        <mxCell id="oA2qePPQeVS2DAIEmv8c-95" value="" style="endArrow=classic;html=1;rounded=0;exitX=0.51;exitY=0.9;exitDx=0;exitDy=0;exitPerimeter=0;entryX=0.5;entryY=0;entryDx=0;entryDy=0;" edge="1" parent="1" source="oA2qePPQeVS2DAIEmv8c-88" target="oA2qePPQeVS2DAIEmv8c-90">
          <mxGeometry width="50" height="50" relative="1" as="geometry">
            <mxPoint x="817" y="603" as="sourcePoint" />
            <mxPoint x="817" y="633" as="targetPoint" />
          </mxGeometry>
        </mxCell>
        <mxCell id="oA2qePPQeVS2DAIEmv8c-96" value="" style="endArrow=classic;html=1;rounded=0;exitX=0.5;exitY=0;exitDx=0;exitDy=0;entryX=0.5;entryY=0;entryDx=0;entryDy=0;" edge="1" parent="1" source="oA2qePPQeVS2DAIEmv8c-91" target="oA2qePPQeVS2DAIEmv8c-70">
          <mxGeometry width="50" height="50" relative="1" as="geometry">
            <mxPoint x="817" y="703" as="sourcePoint" />
            <mxPoint x="817" y="733" as="targetPoint" />
          </mxGeometry>
        </mxCell>
        <mxCell id="oA2qePPQeVS2DAIEmv8c-99" value="" style="endArrow=classic;html=1;rounded=0;exitX=0;exitY=0.5;exitDx=0;exitDy=0;" edge="1" parent="1" source="oA2qePPQeVS2DAIEmv8c-60">
          <mxGeometry width="50" height="50" relative="1" as="geometry">
            <mxPoint x="980" y="560" as="sourcePoint" />
            <mxPoint x="806" y="980" as="targetPoint" />
            <Array as="points">
              <mxPoint x="720" y="260" />
              <mxPoint x="720" y="980" />
            </Array>
          </mxGeometry>
        </mxCell>
        <mxCell id="oA2qePPQeVS2DAIEmv8c-100" value="F" style="edgeLabel;html=1;align=center;verticalAlign=middle;resizable=0;points=[];" vertex="1" connectable="0" parent="oA2qePPQeVS2DAIEmv8c-99">
          <mxGeometry x="-0.2451" relative="1" as="geometry">
            <mxPoint as="offset" />
          </mxGeometry>
        </mxCell>
      </root>
    </mxGraphModel>
  </diagram>
</mxfile>
